<svg width="16" height="16" viewBox="0 0 16 16" xmlns="http://www.w3.org/2000/svg">
    <g fill="none" fill-rule="evenodd">
        <circle stroke="#828E9C" cx="8" cy="8" r="7.5"/>
        <path d="M7.411 9.755v.054h.924v-.054c.021-.93.263-1.343.934-1.751.666-.408 1.064-.994 1.064-1.837 0-1.187-.876-2.052-2.224-2.052-1.23 0-2.213.758-2.266 2.063h.977c.06-.886.677-1.252 1.29-1.246.708-.006 1.278.462 1.278 1.192 0 .602-.339 1.031-.785 1.3-.74.451-1.181.891-1.192 2.33zm-.193 1.611c-.011.382.311.693.687.698a.695.695 0 0 0 .688-.698.685.685 0 0 0-.688-.687c-.376 0-.698.311-.687.687z" fill="#828E9C" fill-rule="nonzero"/>
    </g>
</svg>
