<svg width="24" height="25" viewBox="0 0 24 25" xmlns="http://www.w3.org/2000/svg">
    <g fill="none" fill-rule="evenodd">
        <g stroke="#A6B1BD" stroke-linecap="round" stroke-linejoin="round" stroke-width="1.3">
            <path d="M18.752 10.945c-2.135 3.898-3.815 6.857-5.042 8.878a4.833 4.833 0 0 1-6.589 1.647 4.729 4.729 0 0 1-1.624-6.532l3.578-5.91"/>
            <path d="m7.135 12.237 4.589-7.559c.956-1.575 2.94-2.133 4.431-1.246s1.925 2.883.969 4.458l-4.589 7.558"/>
            <path d="m12.852 14.94-1.891 3.115a1.611 1.611 0 0 1-2.197.549 1.624 1.624 0 0 1-.549-2.216c1.54-2.537 4.494-7.315 5.264-8.583"/>
        </g>
        <path fill="none" d="M0 1h24v24H0z"/>
    </g>
</svg>
