<svg width="32" height="32" viewBox="0 0 32 32" xmlns="http://www.w3.org/2000/svg">
    <g fill="none" fill-rule="evenodd">
        <path fill="none" d="M0 0h32v32H0z"/>
        <path d="M16.086 6.262a9.375 9.375 0 0 1 9.223 11.066c-.796 4.37-4.623 7.684-9.223 7.684a9.331 9.331 0 0 1-5.21-1.578l-3.224.747A1 1 0 0 1 6.51 22.81l1.243-2.875a9.335 9.335 0 0 1-1.041-4.298 9.375 9.375 0 0 1 9.375-9.375zm-3.558 8.375a1 1 0 1 0 0 2 1 1 0 0 0 0-2zm3.472 0a1 1 0 1 0 0 2 1 1 0 0 0 0-2zm3.475 0a1 1 0 1 0 0 2 1 1 0 0 0 0-2z" fill="#BCC4CC"/>
    </g>
</svg>
