<svg width="32" height="32" viewBox="0 0 32 32" xmlns="http://www.w3.org/2000/svg">
    <g fill="none" fill-rule="evenodd">
        <path d="M18.155 6.2c.16 0 .3.11.336.266l.526 2.223a.345.345 0 0 0 .164.22l.983.566c.083.048.181.059.272.032l2.191-.658a.345.345 0 0 1 .399.158l2.246 3.885a.345.345 0 0 1-.062.424l-1.286 1.21a.345.345 0 0 0-.11.252v1.844c0 .095.04.186.11.251l1.286 1.21c.117.11.143.286.062.425l-2.247 3.884a.345.345 0 0 1-.398.158l-1.692-.507a.345.345 0 0 0-.272.031l-1.6.923a.345.345 0 0 0-.165.22l-.406 1.717a.345.345 0 0 1-.337.266h-4.491c-.16 0-.3-.11-.337-.266l-.406-1.717a.345.345 0 0 0-.164-.22l-1.601-.923a.345.345 0 0 0-.272-.031l-1.694.507a.345.345 0 0 1-.398-.158l-2.246-3.884a.345.345 0 0 1 .063-.424l1.285-1.21a.345.345 0 0 0 .108-.251v-1.846a.345.345 0 0 0-.108-.251l-1.285-1.21a.345.345 0 0 1-.063-.424l2.246-3.885a.345.345 0 0 1 .398-.158l1.694.507c.091.028.19.016.272-.031l1.601-.922a.345.345 0 0 0 .164-.22l.406-1.717a.345.345 0 0 1 .337-.266zm-2.225 6a3.5 3.5 0 1 0 0 7 3.5 3.5 0 0 0 0-7z" fill="#008BFE"/>
        <path fill="none" d="M0 0h32v32H0z"/>
    </g>
</svg>
