<svg width="24" height="24" viewBox="0 0 24 24" xmlns="http://www.w3.org/2000/svg">
    <g fill="none" fill-rule="evenodd">
        <g fill="#A6B1BD">
            <path d="M23.143 12.461C21.246 16.666 16.97 19.598 12 19.598c-1.566 0-3.064-.291-4.439-.821l1.527-2.07c.78.507 1.716.802 2.72.802 2.732 0 4.947-2.182 4.947-4.874a4.84 4.84 0 0 0-1.859-3.808l1.878-2.547a12.15 12.15 0 0 1 6.369 6.181zM12 5.324c1.175 0 2.31.163 3.386.47l-1.714 2.324a4.995 4.995 0 0 0-1.863-.357c-2.732 0-4.946 2.182-4.946 4.874 0 1.197.437 2.292 1.163 3.14l-1.774 2.406a12.132 12.132 0 0 1-5.395-5.72C2.753 8.257 7.03 5.325 12 5.325z"/>
            <path d="M16.574 3.076a.693.693 0 0 1 .154.975L4.896 20.101a.713.713 0 0 1-.99.157.693.693 0 0 1-.154-.976l11.833-16.05a.713.713 0 0 1 .989-.156z"/>
        </g>
        <path fill="none" d="M0 0h24v24H0z"/>
    </g>
</svg>
