<svg width="24" height="24" viewBox="0 0 24 24" xmlns="http://www.w3.org/2000/svg">
    <g fill="none" fill-rule="evenodd">
        <path d="M12 5.143c4.97 0 9.246 2.993 11.143 7.285-1.897 4.293-6.173 7.286-11.143 7.286-4.97 0-9.246-2.993-11.143-7.285C2.754 8.136 7.029 5.143 12 5.143zm-.191 2.488c-2.732 0-4.946 2.227-4.946 4.975 0 2.748 2.214 4.976 4.946 4.976 2.731 0 4.946-2.228 4.946-4.976 0-2.748-2.215-4.975-4.946-4.975zm-.003 3.08c1.14 0 2.063.934 2.063 2.086a2.074 2.074 0 0 1-2.063 2.085 2.074 2.074 0 0 1-2.064-2.085c0-1.152.924-2.086 2.064-2.086z" fill="#A6B1BD"/>
        <path fill="none" d="M0 0h24v24H0z"/>
    </g>
</svg>
