<svg width="24" height="24" viewBox="0 0 24 24" xmlns="http://www.w3.org/2000/svg">
    <g fill="none" fill-rule="evenodd">
        <path fill="none" d="M0 0h24v24H0z"/>
        <g stroke="#191919" stroke-linecap="round">
            <path d="M11.561 3.5h.885a5.41 5.41 0 0 1 5.41 5.41v3.777c0 1.079.193 2.149.572 3.159l.45 1.2a.242.242 0 0 1-.228.327H5.35a.242.242 0 0 1-.228-.327l.434-1.161a8.788 8.788 0 0 0 .557-3.077v-3.86A5.448 5.448 0 0 1 11.56 3.5zM9.37 17.996c0 1.373 1.086 2.487 2.425 2.487 1.339 0 2.424-1.114 2.424-2.487"/>
        </g>
    </g>
</svg>
