<svg width="512" height="512" viewBox="0 0 512 512" xmlns="http://www.w3.org/2000/svg" xmlns:xlink="http://www.w3.org/1999/xlink">
    <defs>
        <linearGradient x1="38.071%" y1="20.894%" x2="58.277%" y2="76.655%" id="ypwu6blujd">
            <stop stop-color="#FFEA24" offset="0%"/>
            <stop stop-color="#FEC403" offset="100%"/>
        </linearGradient>
        <linearGradient x1="38.262%" y1="20.894%" x2="58.145%" y2="76.655%" id="5tfxpeelce">
            <stop stop-color="#FEE81A" offset="0%"/>
            <stop stop-color="#FEC50A" offset="100%"/>
        </linearGradient>
        <linearGradient x1="41.768%" y1="13.45%" x2="65.247%" y2="79.706%" id="uexnax1kcf">
            <stop stop-color="#FFE91C" offset=".003%"/>
            <stop stop-color="#FEC404" offset="100%"/>
        </linearGradient>
        <linearGradient x1="58.232%" y1="13.45%" x2="34.753%" y2="79.706%" id="l5gf4f90fg">
            <stop stop-color="#FFEA22" offset="0%"/>
            <stop stop-color="#FEC602" offset="100%"/>
        </linearGradient>
        <linearGradient x1="50%" y1="-35.953%" x2="56.696%" y2="142.938%" id="kv2vn8pz6h">
            <stop stop-color="#FEC502" offset="0%"/>
            <stop stop-color="#FFED28" offset="100%"/>
        </linearGradient>
        <radialGradient cx="29.024%" cy="18.124%" fx="29.024%" fy="18.124%" r="97.568%" gradientTransform="scale(.9982 1) rotate(53.033 .29 .182)" id="kpo26ycn1a">
            <stop stop-color="#FFEF07" offset="0%"/>
            <stop stop-color="#FEBD01" offset="100%"/>
        </radialGradient>
        <ellipse id="cbq2p8g30b" cx="124.632" cy="121.797" rx="87.3" ry="87.143"/>
        <filter x="-4%" y="-4%" width="108%" height="108%" filterUnits="objectBoundingBox" id="386wekncjc">
            <feGaussianBlur stdDeviation="5.5" in="SourceAlpha" result="shadowBlurInner1"/>
            <feOffset dx="3" dy="3" in="shadowBlurInner1" result="shadowOffsetInner1"/>
            <feComposite in="shadowOffsetInner1" in2="SourceAlpha" operator="arithmetic" k2="-1" k3="1" result="shadowInnerInner1"/>
            <feColorMatrix values="0 0 0 0 1 0 0 0 0 1 0 0 0 0 1 0 0 0 0.244782561 0" in="shadowInnerInner1"/>
        </filter>
    </defs>
    <g fill="none" fill-rule="evenodd">
        <path fill="none" d="M0 0h512v512H0z"/>
        <path d="m48.116 247.88 323.402 3.483 95.82 169.983-11.64 13.15A16.32 16.32 0 0 1 443.477 440h-293.9a20.4 20.4 0 0 1-17.807-10.446L52.654 288.02a35.7 35.7 0 0 1-4.538-17.42v-22.72z" fill="#207BBC"/>
        <g transform="translate(210.961 73)">
            <use fill="url(#kpo26ycn1a)" xlink:href="#cbq2p8g30b"/>
            <use fill="#000" filter="url(#386wekncjc)" xlink:href="#cbq2p8g30b"/>
            <rect fill="url(#ypwu6blujd)" x="119.379" width="13.143" height="26.907" rx="6.571"/>
            <path d="M13.508 108.3a6.545 6.545 0 0 1 6.545 6.545v13.926a6.545 6.545 0 1 1-13.09 0v-13.926a6.545 6.545 0 0 1 6.545-6.545z" fill="url(#5tfxpeelce)" transform="matrix(0 1 1 0 -108.3 108.3)"/>
            <path d="M31.537 35.378a6.531 6.531 0 0 0 .161 9.254l9.98 9.6a6.584 6.584 0 0 0 9.292-.163 6.531 6.531 0 0 0-.162-9.254l-9.98-9.6a6.584 6.584 0 0 0-9.291.163z" fill="url(#uexnax1kcf)"/>
            <path d="M216.713 35.378a6.531 6.531 0 0 1-.161 9.254l-9.98 9.6a6.584 6.584 0 0 1-9.292-.163 6.531 6.531 0 0 1 .162-9.254l9.98-9.6a6.584 6.584 0 0 1 9.291.163z" fill="url(#l5gf4f90fg)"/>
            <path d="M236.203 108.3a6.545 6.545 0 0 1 6.545 6.545v13.926a6.545 6.545 0 1 1-13.09 0v-13.926a6.545 6.545 0 0 1 6.545-6.545z" fill="url(#kv2vn8pz6h)" transform="rotate(90 236.203 121.808)"/>
        </g>
        <path d="M59.316 237.094h302.241a20.4 20.4 0 0 1 17.711 10.277l91.137 159.452c3.075 5.38 1.206 12.234-4.174 15.309a11.22 11.22 0 0 1-5.567 1.479H158.226a20.4 20.4 0 0 1-17.72-10.294L49.569 253.873c-3.07-5.383-1.195-12.235 4.188-15.305a11.22 11.22 0 0 1 5.559-1.474z" fill="#FFF"/>
        <g stroke="#FFF" stroke-width="1.989">
            <path d="M119.151 245.223c3.05 0 5.98.82 8.523 2.306a16.893 16.893 0 0 1 6.198 6.287l36.605 64.835a4.956 4.956 0 0 1 .46 3.777 4.972 4.972 0 0 1-4.79 3.639h-53.304c-3.04 0-5.961-.815-8.5-2.292a16.893 16.893 0 0 1-6.194-6.254l-36.897-64.868a4.956 4.956 0 0 1-.473-3.776 4.972 4.972 0 0 1 4.794-3.654z" fill="#00D2FF"/>
            <path d="M168.921 332.6a16.893 16.893 0 0 1 14.72 8.593l36.606 64.834a4.956 4.956 0 0 1 .46 3.778 4.972 4.972 0 0 1-4.79 3.639h-53.304c-3.04 0-5.961-.816-8.5-2.292a16.893 16.893 0 0 1-6.194-6.255l-36.897-64.868a4.956 4.956 0 0 1-.473-3.776 4.972 4.972 0 0 1 4.794-3.654z" fill="#01A8E6"/>
            <path d="M198.784 245.223c3.048 0 5.979.82 8.522 2.306a16.893 16.893 0 0 1 6.198 6.287l36.605 64.835a4.956 4.956 0 0 1 .46 3.777 4.972 4.972 0 0 1-4.79 3.639h-53.304c-3.04 0-5.961-.815-8.5-2.292a16.893 16.893 0 0 1-6.194-6.254l-36.897-64.868a4.956 4.956 0 0 1-.473-3.776 4.972 4.972 0 0 1 4.794-3.654z" fill="#00D2FF"/>
            <path d="M248.554 332.6a16.893 16.893 0 0 1 14.72 8.593l36.605 64.834a4.956 4.956 0 0 1 .46 3.778 4.972 4.972 0 0 1-4.79 3.639h-53.304c-3.04 0-5.961-.816-8.5-2.292a16.893 16.893 0 0 1-6.194-6.255l-36.897-64.868a4.956 4.956 0 0 1-.473-3.776 4.972 4.972 0 0 1 4.794-3.654z" fill="#01A8E6"/>
            <path d="M277.863 245.223c3.049 0 5.98.82 8.523 2.306a16.893 16.893 0 0 1 6.197 6.287l36.605 64.835a4.956 4.956 0 0 1 .46 3.777 4.972 4.972 0 0 1-4.79 3.639h-53.304c-3.039 0-5.96-.815-8.499-2.292a16.893 16.893 0 0 1-6.194-6.254l-36.898-64.868a4.956 4.956 0 0 1-.472-3.776 4.972 4.972 0 0 1 4.794-3.654zM356.75 245.223c3.048 0 5.978.82 8.522 2.306a16.893 16.893 0 0 1 6.197 6.287l36.605 64.835a4.956 4.956 0 0 1 .46 3.777 4.972 4.972 0 0 1-4.79 3.639H350.44c-3.039 0-5.96-.815-8.499-2.292a16.893 16.893 0 0 1-6.194-6.254l-36.898-64.868a4.956 4.956 0 0 1-.472-3.776 4.972 4.972 0 0 1 4.794-3.654z" fill="#00D2FF"/>
            <path d="M327.633 332.6a16.893 16.893 0 0 1 14.72 8.593l36.605 64.834a4.956 4.956 0 0 1 .46 3.778 4.972 4.972 0 0 1-4.79 3.639h.001-53.305c-3.039 0-5.96-.816-8.499-2.292a16.893 16.893 0 0 1-6.194-6.255l-36.898-64.868a4.956 4.956 0 0 1-.472-3.776 4.972 4.972 0 0 1 4.794-3.654zM406.52 332.6a16.893 16.893 0 0 1 14.72 8.593l36.605 64.834a4.956 4.956 0 0 1 .46 3.778 4.972 4.972 0 0 1-4.79 3.639H400.21c-3.039 0-5.96-.816-8.499-2.292a16.893 16.893 0 0 1-6.194-6.255l-36.898-64.868a4.956 4.956 0 0 1-.472-3.776 4.972 4.972 0 0 1 4.794-3.654z" fill="#01A8E6"/>
        </g>
    </g>
</svg>
