<svg width="24" height="24" viewBox="0 0 24 24" xmlns="http://www.w3.org/2000/svg">
    <g fill="none" fill-rule="evenodd">
        <path fill="none" d="M0 0h24v24H0z"/>
        <g stroke="#fff">
            <path d="M12 4.64c1.105 0 2.105.448 2.828 1.172A3.987 3.987 0 0 1 16 8.64a3.987 3.987 0 0 1-1.172 2.829A3.987 3.987 0 0 1 12 12.64a3.987 3.987 0 0 1-2.828-1.171A3.987 3.987 0 0 1 8 8.64c0-1.104.448-2.104 1.172-2.828A3.987 3.987 0 0 1 12 4.64z"/>
            <path d="M5 21a5.851 5.851 0 0 1 4.723-5.742c.877-.172 1.65-.258 2.322-.258.724 0 1.563.116 2.515.348A5.817 5.817 0 0 1 19 21h0" stroke-linecap="square"/>
        </g>
    </g>
</svg>
