<svg width="32" height="32" viewBox="0 0 32 32" fill="none" xmlns="http://www.w3.org/2000/svg">
<path d="M30.6908 6.14354L25.2772 1.19184C25.0216 0.9557 24.6864 0.824554 24.3385 0.824554C23.9905 0.824554 23.6553 0.9557 23.3998 1.19184L17.9862 6.14354C17.8126 6.30226 17.6911 6.50973 17.6375 6.73874C17.5839 6.96776 17.6007 7.20762 17.6858 7.42689C17.7709 7.64616 17.9203 7.8346 18.1143 7.96749C18.3084 8.10038 18.5381 8.17152 18.7733 8.17159H20.9223C20.9866 8.17169 21.0483 8.19729 21.0937 8.24278C21.1392 8.28828 21.1648 8.34996 21.1649 8.41429V22.872C21.1652 23.1751 21.2858 23.4656 21.5001 23.6799C21.7144 23.8942 22.0049 24.0147 22.308 24.015H26.2494C26.5524 24.0147 26.8429 23.8942 27.0572 23.68C27.2715 23.4657 27.3921 23.1752 27.3925 22.8722V8.41429C27.3925 8.34995 27.4181 8.28826 27.4636 8.24277C27.5091 8.19727 27.5708 8.17167 27.6352 8.17159H29.9037C30.1389 8.17152 30.3686 8.10038 30.5627 7.96749C30.7567 7.8346 30.9061 7.64616 30.9912 7.42689C31.0763 7.20762 31.0931 6.96776 31.0395 6.73874C30.9859 6.50973 30.8644 6.30226 30.6908 6.14354Z" fill="#2E61FA"/>
<path d="M26.8925 28.5317H21.665C21.4329 28.5317 21.2104 28.6239 21.0463 28.788C20.8822 28.9521 20.79 29.1746 20.79 29.4067C20.79 29.6388 20.8822 29.8613 21.0463 30.0254C21.2104 30.1895 21.4329 30.2817 21.665 30.2817H26.8925C27.1245 30.2817 27.3471 30.1895 27.5112 30.0254C27.6753 29.8613 27.7675 29.6388 27.7675 29.4067C27.7675 29.1746 27.6753 28.9521 27.5112 28.788C27.3471 28.6239 27.1245 28.5317 26.8925 28.5317Z" fill="#2E61FA"/>
<path d="M26.8925 25.7678H21.665C21.4329 25.7678 21.2104 25.86 21.0463 26.0241C20.8822 26.1882 20.79 26.4107 20.79 26.6428C20.79 26.8749 20.8822 27.0974 21.0463 27.2615C21.2104 27.4256 21.4329 27.5178 21.665 27.5178H26.8925C27.1245 27.5178 27.3471 27.4256 27.5112 27.2615C27.6753 27.0974 27.7675 26.8749 27.7675 26.6428C27.7675 26.4107 27.6753 26.1882 27.5112 26.0241C27.3471 25.86 27.1245 25.7678 26.8925 25.7678Z" fill="#2E61FA"/>
<path d="M7.24895 18.5659H3.4862C2.80556 18.5659 2.2538 19.1177 2.2538 19.7983V29.1743C2.2538 29.8549 2.80556 30.4067 3.4862 30.4067H7.24895C7.92959 30.4067 8.48135 29.8549 8.48135 29.1743V19.7983C8.48135 19.1177 7.92959 18.5659 7.24895 18.5659Z" fill="#2E61FA"/>
<path d="M12.485 13.0212H16.2479C16.5748 13.0212 16.8883 13.151 17.1194 13.3821C17.3505 13.6133 17.4803 13.9267 17.4803 14.2536V29.1743C17.4803 29.5011 17.3505 29.8146 17.1194 30.0457C16.8883 30.2768 16.5748 30.4067 16.2479 30.4067H12.485C12.1581 30.4067 11.8447 30.2768 11.6136 30.0457C11.3824 29.8146 11.2526 29.5011 11.2526 29.1743V14.2534C11.2526 14.0915 11.2845 13.9313 11.3464 13.7818C11.4083 13.6323 11.4991 13.4964 11.6136 13.382C11.728 13.2676 11.8639 13.1768 12.0134 13.1149C12.1629 13.053 12.3232 13.0212 12.485 13.0212Z" fill="#2E61FA"/>
</svg>
