<svg width="32" height="32" viewBox="0 0 32 32" fill="none" xmlns="http://www.w3.org/2000/svg">
<path d="M28.5671 9.253V9.23113C28.5546 8.94738 28.5459 8.648 28.5409 8.31425C28.5253 7.52638 28.2131 6.77338 27.6666 6.20563C27.1201 5.63789 26.3795 5.29726 25.5927 5.25177C22.1921 5.06427 19.5659 3.95677 17.319 1.77114L17.3002 1.75239C16.9504 1.42937 16.4917 1.25 16.0156 1.25C15.5394 1.25 15.0807 1.42937 14.7309 1.75239L14.7115 1.77114C12.4677 3.95864 9.8365 5.06239 6.4415 5.25177C5.65439 5.29626 4.91322 5.63658 4.36649 6.20453C3.81976 6.77244 3.50786 7.52606 3.49335 8.31425C3.48835 8.6455 3.47961 8.948 3.46711 9.23113V9.28363C3.40086 12.7411 3.31899 17.0474 4.76087 20.9543C5.55399 23.1024 6.75462 24.9705 8.33025 26.5055C10.1246 28.2555 12.4746 29.6418 15.3121 30.6305C15.4064 30.6631 15.5029 30.6893 15.6009 30.7086C15.9741 30.7829 16.3604 30.7557 16.7196 30.6299C19.5571 29.6399 21.9071 28.2511 23.6971 26.5049C25.2715 24.9686 26.4727 23.1005 27.2659 20.9518C28.7127 17.0311 28.6309 12.718 28.5671 9.253ZM22.6477 12.8118C22.6115 13.1765 22.4497 13.5173 22.1902 13.7761L21.4452 14.5205L14.7971 21.1561C14.6996 21.2529 14.5901 21.3369 14.4715 21.4061C14.1684 21.5823 13.8156 21.6534 13.468 21.6081C13.1204 21.5629 12.7975 21.404 12.5496 21.1561L9.72212 18.333C9.57062 18.1864 9.44981 18.0111 9.36681 17.8173C9.28375 17.6236 9.24012 17.4152 9.23844 17.2044C9.23675 16.9936 9.27712 16.7845 9.35706 16.5894C9.437 16.3944 9.555 16.2172 9.70419 16.0682C9.85331 15.9192 10.0306 15.8014 10.2258 15.7217C10.4209 15.6419 10.6301 15.6018 10.8409 15.6038C11.0517 15.6056 11.26 15.6495 11.4537 15.7328C11.6474 15.816 11.8226 15.937 11.969 16.0886L12.824 16.9411C13.0492 17.166 13.3544 17.2923 13.6727 17.2923C13.991 17.2923 14.2962 17.166 14.5215 16.9411L19.709 11.7611L19.9402 11.528C20.1719 11.2964 20.4695 11.1421 20.7922 11.0861C21.115 11.0301 21.4472 11.0753 21.7432 11.2155C22.0394 11.3556 22.2849 11.5839 22.4462 11.8689C22.6076 12.1541 22.6769 12.4821 22.6446 12.808L22.6477 12.8118Z" fill="#2E61FA"/>
</svg>
