<svg width="30" height="30" viewBox="0 0 30 30" fill="none" xmlns="http://www.w3.org/2000/svg">
<path fill-rule="evenodd" clip-rule="evenodd" d="M25.6066 4.3934C31.4645 10.2513 31.4645 19.7487 25.6066 25.6066C19.7487 31.4645 10.2513 31.4645 4.3934 25.6066C-1.46447 19.7487 -1.46447 10.2513 4.3934 4.3934C10.2513 -1.46447 19.7487 -1.46447 25.6066 4.3934ZM8.22098 13.3543L14.138 6.70557C14.5989 6.19196 15.4009 6.19196 15.8582 6.70557L21.7788 13.3543C22.4402 14.0966 21.9125 15.2716 20.9204 15.2716H18.2574C18.2588 15.2908 18.2612 15.31 18.2637 15.3294C18.2676 15.3598 18.2715 15.3906 18.2715 15.4228V22.4093C18.2715 23.1129 17.7016 23.6828 16.998 23.6828H13.0017C12.2982 23.6828 11.7283 23.1129 11.7283 22.4093V15.4228C11.7283 15.3701 11.7353 15.3208 11.7424 15.2716L11.7424 15.2716H9.07934C8.0873 15.2716 7.55962 14.0966 8.22098 13.3543Z" fill="#FFE500"/>
</svg>
