<svg width="44" height="44" viewBox="0 0 44 44" xmlns="http://www.w3.org/2000/svg">
    <g fill="none" fill-rule="evenodd">
        <g fill="#B0B8C1">
            <path d="M21.977 11a7.583 7.583 0 0 1 7.563 7.039l.494 6.87 1.463 2.515a.575.575 0 0 1-.498.865H12.99a.575.575 0 0 1-.5-.86l1.43-2.52.495-6.87A7.583 7.583 0 0 1 21.977 11z"/>
            <path d="M19.386 29.722v.22c0 1.27 1.159 2.3 2.59 2.3 1.43 0 2.589-1.03 2.589-2.3v-.22" stroke="#B0B8C1" stroke-width="1.3"/>
        </g>
        <path fill="none" d="M0 0h44v44H0z"/>
    </g>
</svg>
