<svg width="56" height="48" viewBox="0 0 56 48" xmlns="http://www.w3.org/2000/svg">
    <path d="M28 0c15.464 0 28 10.638 28 23.76 0 4.427-1.426 8.57-3.91 12.119a24.514 24.514 0 0 1-3.734 4.196c.104 1.508.215 2.587.333 3.24.118.645.501 1.628 1.15 2.948l.143.288a1 1 0 0 1-1.146 1.415l-.111-.036-.328-.127c-2.145-.836-3.533-1.444-4.166-1.823-.523-.313-1.262-.861-2.215-1.644-4.123 2.026-8.91 3.185-14.016 3.185-15.464 0-28-10.638-28-23.76C0 10.638 12.536 0 28 0zm-9.477 21.739c-1.38 0-2.5 1.131-2.5 2.527 0 1.396 1.12 2.528 2.5 2.528s2.5-1.132 2.5-2.528c0-1.396-1.12-2.527-2.5-2.527zm9 0c-1.38 0-2.5 1.131-2.5 2.527 0 1.396 1.12 2.528 2.5 2.528s2.5-1.132 2.5-2.528c0-1.396-1.12-2.527-2.5-2.527zm9 0c-1.38 0-2.5 1.131-2.5 2.527 0 1.396 1.12 2.528 2.5 2.528s2.5-1.132 2.5-2.528c0-1.396-1.12-2.527-2.5-2.527z" fill="#748EA3" fill-rule="evenodd" opacity=".3"/>
</svg>
