<svg width="17" height="17" viewBox="0 0 17 17" fill="none" xmlns="http://www.w3.org/2000/svg">
<g clip-path="url(#clip0_38_17)">
<path d="M7.36222 11.5118L11.5118 7.36219L6.89372 3.74802L3.74805 6.89369L7.36222 11.5118Z" stroke="#111111" stroke-width="1.5" stroke-miterlimit="10" stroke-linecap="round" stroke-linejoin="round"/>
<path d="M8.09844 14.9252L14.9252 8.09841L14.189 7.36219C13.4528 6.62597 12.315 6.62597 11.5788 7.36219L7.36222 11.5787C6.626 12.3149 6.626 13.4527 7.36222 14.189L8.09844 14.9252Z" stroke="#111111" stroke-width="1.5" stroke-miterlimit="10" stroke-linecap="round" stroke-linejoin="round"/>
<path d="M3.94896 6.6929L6.69306 3.94881C7.36235 3.27952 7.36235 2.14172 6.69306 1.47243L5.88991 0.669281L0.669434 5.88975L1.47258 6.6929C2.14187 7.36219 3.21274 7.36219 3.94896 6.6929Z" stroke="#111111" stroke-width="1.5" stroke-miterlimit="10" stroke-linecap="round" stroke-linejoin="round"/>
<path d="M11.5117 11.5118L16.3306 16.3307" stroke="#111111" stroke-width="1.5" stroke-miterlimit="10" stroke-linecap="round" stroke-linejoin="round"/>
</g>
<defs>
<clipPath id="clip0_38_17">
<rect width="17" height="17" fill="white"/>
</clipPath>
</defs>
</svg>
